HIERARCHY
ROOT Hips
{
  OFFSET 5.84602e-005 68.8428 3.50346
  CHANNELS 6 Xposition Yposition Zposition Zrotation Xrotation Yrotation
  JOINT Spine
  {
    OFFSET 0 8.597 -4.6522
    CHANNELS 3 Zrotation Xrotation Yrotation
    JOINT Spine1
    {
      OFFSET 0 7.8454 0.4098
      CHANNELS 3 Zrotation Xrotation Yrotation
      JOINT Spine2
      {
        OFFSET 0 9.7078 -2.1609
        CHANNELS 3 Zrotation Xrotation Yrotation
        JOINT Neck
        {
          OFFSET 0 21.8761 -0.4549
          CHANNELS 3 Zrotation Xrotation Yrotation
          JOINT Head
          {
            OFFSET 0 12.3537 3.3602
            CHANNELS 3 Zrotation Xrotation Yrotation
            End Site
            {
              OFFSET 0.0001 18.9506 0.5657
            }
          }
        }
        JOINT LeftShoulder
        {
          OFFSET 2.2086 21.1115 7.2329
          CHANNELS 3 Zrotation Xrotation Yrotation
          JOINT LeftArm
          {
            OFFSET 13.1193 3.0282 -4.8998
            CHANNELS 3 Zrotation Xrotation Yrotation
            JOINT LeftForeArm
            {
              OFFSET 27.4081 -0.0973053 -0.2375
              CHANNELS 3 Zrotation Xrotation Yrotation
              JOINT LeftHand
              {
                OFFSET 22.8641 0.0662994 -0.1369
                CHANNELS 3 Zrotation Xrotation Yrotation
                JOINT LeftHandIndex1
                {
                  OFFSET 8.8614 0.775009 2.4612
                  CHANNELS 3 Zrotation Xrotation Yrotation
                  JOINT LeftHandIndex2
                  {
                    OFFSET 3.3146 -0.808304 0.5841
                    CHANNELS 3 Zrotation Xrotation Yrotation
                    JOINT LeftHandIndex3
                    {
                      OFFSET 2.2628 -0.552002 0.3989
                      CHANNELS 3 Zrotation Xrotation Yrotation
                      End Site
                      {
                        OFFSET 1.6102 -0.4807 0.2612
                      }
                    }
                  }
                }
                JOINT LeftHandMiddle1
                {
                  OFFSET 8.9937 0.895004 0.2143
                  CHANNELS 3 Zrotation Xrotation Yrotation
                  JOINT LeftHandMiddle2
                  {
                    OFFSET 4.0984 0.0113983 -0.0242
                    CHANNELS 3 Zrotation Xrotation Yrotation
                    JOINT LeftHandMiddle3
                    {
                      OFFSET 2.2716 0.00689697 -0.0138001
                      CHANNELS 3 Zrotation Xrotation Yrotation
                      End Site
                      {
                        OFFSET 2.0404 -0.1441 0.0027
                      }
                    }
                  }
                }
                JOINT LeftHandRing1
                {
                  OFFSET 8.5234 0.597198 -2.0164
                  CHANNELS 3 Zrotation Xrotation Yrotation
                  JOINT LeftHandRing2
                  {
                    OFFSET 3.7188 -0.188293 -0.2328
                    CHANNELS 3 Zrotation Xrotation Yrotation
                    JOINT LeftHandRing3
                    {
                      OFFSET 2.1191 -0.106598 -0.1332
                      CHANNELS 3 Zrotation Xrotation Yrotation
                      End Site
                      {
                        OFFSET 1.8737 -0.2304 -0.0886
                      }
                    }
                  }
                }
                JOINT LeftHandPinky1
                {
                  OFFSET 7.9094 -0.601089 -3.4825
                  CHANNELS 3 Zrotation Xrotation Yrotation
                  JOINT LeftHandPinky2
                  {
                    OFFSET 2.2874 -0.477005 -0.6314
                    CHANNELS 3 Zrotation Xrotation Yrotation
                    JOINT LeftHandPinky3
                    {
                      OFFSET 1.6774 -0.349396 -0.4633
                      CHANNELS 3 Zrotation Xrotation Yrotation
                      End Site
                      {
                        OFFSET 1.4888 -0.4091 -0.3416
                      }
                    }
                  }
                }
                JOINT LeftHandThumb1
                {
                  OFFSET 1.833 -1.3875 1.3896
                  CHANNELS 3 Zrotation Xrotation Yrotation
                  JOINT LeftHandThumb2
                  {
                    OFFSET 3.4129 -1.121 2.5732
                    CHANNELS 3 Zrotation Xrotation Yrotation
                    JOINT LeftHandThumb3
                    {
                      OFFSET 2.2474 -0.804199 1.6192
                      CHANNELS 3 Zrotation Xrotation Yrotation
                      End Site
                      {
                        OFFSET 1.6527 -0.5689 1.1317
                      }
                    }
                  }
                }
              }
            }
          }
        }
        JOINT RightShoulder
        {
          OFFSET -2.2086 21.1115 7.2329
          CHANNELS 3 Zrotation Xrotation Yrotation
          JOINT RightArm
          {
            OFFSET -13.1216 3.0287 -4.9007
            CHANNELS 3 Zrotation Xrotation Yrotation
            JOINT RightForeArm
            {
              OFFSET -27.4081 -0.0973053 -0.2375
              CHANNELS 3 Zrotation Xrotation Yrotation
              JOINT RightHand
              {
                OFFSET -22.8641 0.0664063 -0.1369
                CHANNELS 3 Zrotation Xrotation Yrotation
                JOINT RightHandIndex1
                {
                  OFFSET -8.8614 0.774994 2.4612
                  CHANNELS 3 Zrotation Xrotation Yrotation
                  JOINT RightHandIndex2
                  {
                    OFFSET -3.3146 -0.808304 0.5841
                    CHANNELS 3 Zrotation Xrotation Yrotation
                    JOINT RightHandIndex3
                    {
                      OFFSET -2.2628 -0.552002 0.3989
                      CHANNELS 3 Zrotation Xrotation Yrotation
                      End Site
                      {
                        OFFSET -1.6102 -0.4807 0.2612
                      }
                    }
                  }
                }
                JOINT RightHandMiddle1
                {
                  OFFSET -8.9937 0.894989 0.2143
                  CHANNELS 3 Zrotation Xrotation Yrotation
                  JOINT RightHandMiddle2
                  {
                    OFFSET -4.0984 0.0113983 -0.0242
                    CHANNELS 3 Zrotation Xrotation Yrotation
                    JOINT RightHandMiddle3
                    {
                      OFFSET -2.2716 0.00691223 -0.0138001
                      CHANNELS 3 Zrotation Xrotation Yrotation
                      End Site
                      {
                        OFFSET -2.0404 -0.1441 0.0027
                      }
                    }
                  }
                }
                JOINT RightHandRing1
                {
                  OFFSET -8.5234 0.597198 -2.0164
                  CHANNELS 3 Zrotation Xrotation Yrotation
                  JOINT RightHandRing2
                  {
                    OFFSET -3.7188 -0.188309 -0.2328
                    CHANNELS 3 Zrotation Xrotation Yrotation
                    JOINT RightHandRing3
                    {
                      OFFSET -2.1191 -0.106598 -0.1332
                      CHANNELS 3 Zrotation Xrotation Yrotation
                      End Site
                      {
                        OFFSET -1.8737 -0.2304 -0.0886
                      }
                    }
                  }
                }
                JOINT RightHandPinky1
                {
                  OFFSET -7.9094 -0.601105 -3.4825
                  CHANNELS 3 Zrotation Xrotation Yrotation
                  JOINT RightHandPinky2
                  {
                    OFFSET -2.2874 -0.477005 -0.6314
                    CHANNELS 3 Zrotation Xrotation Yrotation
                    JOINT RightHandPinky3
                    {
                      OFFSET -1.6774 -0.349396 -0.4633
                      CHANNELS 3 Zrotation Xrotation Yrotation
                      End Site
                      {
                        OFFSET -1.4888 -0.4091 -0.3416
                      }
                    }
                  }
                }
                JOINT RightHandThumb1
                {
                  OFFSET -1.833 -1.38751 1.3896
                  CHANNELS 3 Zrotation Xrotation Yrotation
                  JOINT RightHandThumb2
                  {
                    OFFSET -3.41299 -1.12099 2.5732
                    CHANNELS 3 Zrotation Xrotation Yrotation
                    JOINT RightHandThumb3
                    {
                      OFFSET -2.24741 -0.804108 1.6192
                      CHANNELS 3 Zrotation Xrotation Yrotation
                      End Site
                      {
                        OFFSET -1.6527 -0.5689 1.1317
                      }
                    }
                  }
                }
              }
            }
          }
        }
      }
    }
  }
  JOINT RightUpLeg
  {
    OFFSET -9.1966 3.8861 -0.7581
    CHANNELS 3 Zrotation Xrotation Yrotation
    JOINT RightLeg
    {
      OFFSET -0.7359 -41.0265 0
      CHANNELS 3 Zrotation Xrotation Yrotation
      JOINT RightFoot
      {
        OFFSET 0 -40.2855 0
        CHANNELS 3 Zrotation Xrotation Yrotation
        JOINT RightToeBase
        {
          OFFSET 0 -5.6122 11.7359
          CHANNELS 3 Zrotation Xrotation Yrotation
          End Site
          {
            OFFSET 0 0 7.8731
          }
        }
      }
    }
  }
  JOINT LeftUpLeg
  {
    OFFSET 9.1965 3.8864 -0.7581
    CHANNELS 3 Zrotation Xrotation Yrotation
    JOINT LeftLeg
    {
      OFFSET 0.7359 -41.0268 0
      CHANNELS 3 Zrotation Xrotation Yrotation
      JOINT LeftFoot
      {
        OFFSET 0 -40.2855 0
        CHANNELS 3 Zrotation Xrotation Yrotation
        JOINT LeftToeBase
        {
          OFFSET 0 -5.6122 11.7359
          CHANNELS 3 Zrotation Xrotation Yrotation
          End Site
          {
            OFFSET 0 0 7.8731
          }
        }
      }
    }
  }
}
MOTION
Frames:	6
Frame Time:	0.0333333
5.84602e-005 68.8428 3.50346 0 0 -0 0 0 -0 0 0 -0 0 0 -0 0 0 -0 0 0 -0 0 0 -0 0 0 -0 0 0 -0 0 0 -0 0 0 -0 0 0 -0 0 0 -0 0 0 -0 -0.0146107 -8.87603e-005 -2.63497e-007 2.99804e-018 -2.42657e-020 -1.42182e-022 0 0 -0 -0.0187562 -0.001176 5.858e-005 5.06224e-018 3.88251e-019 1.21329e-020 0 0 -0 -0.012269 -0.00324817 0.000675346 -1.74678e-018 3.88251e-019 -0 0 0 -0 0 0 -0 0 0 -0 0 0 -0 0 0 -0 0 0 -0 0 0 -0 0 0 -0 0 0 -0 0 0 -0 0 0 -0 0.0149955 -9.10982e-005 2.64101e-007 -9.69331e-018 1.21329e-020 -4.7394e-023 0 0 -0 0.0189956 -0.00119102 -5.96516e-005 -5.41541e-019 0 2.42657e-020 0 0 -0 0.0122698 -0.00324857 -0.000673756 -2.00796e-019 0 -1.94126e-019 0 0 -0 0 0 -0 0 0 -0 3.39842 1.33031 -0.0637918 -5.65207e-008 0.834868 -0.000436188 -3.39935 -2.16518 -0.0642563 -8.89002e-024 -1.18485e-023 -1.48106e-024 -3.39844 1.35642 0.0640283 -3.18788e-007 0.782166 -0.000588827 3.39931 -2.13858 0.0634662 1.1399e-023 0 -0 
0.120143 7.53797 -42.9989 0 0 -0 2.3325 8.66107 -1.98516 5.05854 17.2267 -4.40611 5.05854 17.2267 -4.40611 -1.03909e-005 -2.26995e-008 3.13795e-006 0.907511 -0.124149 0.000982745 -12.252 1.60634 -20.101 -5.8364 3.03547 -31.5663 17.642 1.55671 -69.8911 25.9979 7.87292e-006 1.386e-005 1.12052e-006 1.88634e-006 9.31329e-008 -1.40516e-007 7.25656e-008 2.48025e-008 4.68386e-008 -2.41885e-008 -8.26749e-009 1.12052e-006 1.88634e-006 9.31329e-008 -0.0146128 -8.94043e-005 -1.44413e-006 1.07265e-006 1.91051e-006 1.01643e-007 1.12052e-006 1.88634e-006 9.31329e-008 -0.0187697 -0.00117708 6.22327e-005 1.07236e-006 1.91042e-006 1.01707e-007 1.12052e-006 1.88634e-006 9.31329e-008 -0.0122797 -0.00325191 0.000678772 1.07283e-006 1.91028e-006 1.01622e-007 1.12052e-006 1.88634e-006 9.31329e-008 -1.40516e-007 7.25656e-008 2.48025e-008 4.68386e-008 -2.41885e-008 -8.26749e-009 18.2731 4.78381 35.576 7.15164 2.12751 34.3603 6.82556 2.2834 56.4735 6.99682 2.85609e-006 -6.99936e-006 1.27767e-007 8.03773e-008 -1.09977e-007 4.01555e-007 2.52614e-007 -3.45641e-007 1.09515e-007 6.88948e-008 -9.42657e-008 1.27767e-007 8.03773e-008 -1.09977e-007 0.0149948 -9.97787e-005 -1.77987e-006 1.09515e-007 6.88825e-008 -9.42748e-008 1.27767e-007 8.03773e-008 -1.09977e-007 0.0189976 -0.00118984 -6.17854e-005 1.09514e-007 6.88792e-008 -9.42783e-008 1.27767e-007 8.03773e-008 -1.09977e-007 0.0122666 -0.00324618 -0.000675629 1.09512e-007 6.88854e-008 -9.42762e-008 1.27767e-007 8.03773e-008 -1.09977e-007 4.01555e-007 2.52614e-007 -3.45641e-007 1.09515e-007 6.88948e-008 -9.42657e-008 -3.39143 -50.588 -13.5074 -174.807 29.272 170.147 -3.07148 51.9154 -10.5615 2.09959e-007 1.08299e-008 8.24054e-007 5.06468 -50.3943 14.5949 174.647 29.2851 -170.134 4.70905 51.2634 9.41742 -1.84271e-008 1.72124e-006 -5.74797e-007 
0.120143 7.53797 -42.9989 0 0 -0 2.33338 8.63055 -1.98668 5.05876 17.1656 -4.40741 5.05876 17.1656 -4.40741 -5.97419e-005 0.000274952 1.60211e-005 1.80733 -0.240777 0.0361297 -12.252 1.60633 -20.101 -5.8364 3.03546 -31.5663 17.642 1.55672 -69.8911 25.9979 5.80276e-006 8.66491e-006 -1.40562e-007 7.25362e-008 2.46263e-008 1.40562e-007 -7.25362e-008 -2.46263e-008 -1.40562e-007 7.25362e-008 2.46263e-008 -1.40562e-007 7.25362e-008 2.46263e-008 -0.014605 -9.04577e-005 -1.71426e-007 -1.40562e-007 7.25331e-008 2.46357e-008 -1.40562e-007 7.25362e-008 2.46263e-008 -0.0187693 -0.00117842 5.96631e-005 -1.40562e-007 7.25323e-008 2.46397e-008 -1.40562e-007 7.25362e-008 2.46263e-008 -0.0122694 -0.0032479 0.000675737 -1.40561e-007 7.25344e-008 2.46381e-008 -1.40562e-007 7.25362e-008 2.46263e-008 1.40562e-007 -7.25362e-008 -2.46263e-008 -1.40562e-007 7.25362e-008 2.46263e-008 18.2731 4.7838 35.576 7.13443 2.11726 34.2602 6.82555 2.28341 56.4735 6.00968 0.123965 0.669111 7.33714e-008 4.6137e-008 -6.22546e-008 3.66857e-007 2.30685e-007 -3.11273e-007 -2.20114e-007 -1.38411e-007 1.86764e-007 7.33714e-008 4.6137e-008 -6.22546e-008 0.014988 -9.1239e-005 3.99503e-006 -2.20115e-007 -1.38387e-007 1.86782e-007 7.33714e-008 4.6137e-008 -6.22546e-008 0.0190045 -0.00119143 -6.71919e-005 -2.20113e-007 -1.3838e-007 1.86789e-007 7.33714e-008 4.6137e-008 -6.22546e-008 0.0122621 -0.00324628 -0.000675251 -2.20109e-007 -1.38392e-007 1.86785e-007 7.33714e-008 4.6137e-008 -6.22546e-008 3.66857e-007 2.30685e-007 -3.11273e-007 -2.20114e-007 -1.38411e-007 1.86764e-007 -3.39143 -50.588 -13.5074 -174.807 29.272 170.147 -3.07148 51.9154 -10.5615 2.09959e-007 1.08299e-008 8.24054e-007 5.06474 -50.3944 14.595 174.647 29.2852 -170.134 4.70906 51.2635 9.41741 -2.38542e-015 -3.18055e-015 3.18055e-015 
0.120143 7.53797 -42.9989 0 0 -0 2.33426 8.60002 -1.98819 5.05899 17.1045 -4.4087 5.05898 17.1045 -4.4087 -1.56715e-006 3.95569e-007 3.9374e-006 2.70894 -0.357074 0.0731738 -12.252 1.60634 -20.101 -5.83641 3.03545 -31.5663 17.642 1.55672 -69.8911 25.9979 5.72669e-006 -1.89474e-006 1.40609e-007 -7.25067e-008 -2.44501e-008 -6.56176e-007 3.38365e-007 1.141e-007 1.40609e-007 -7.25067e-008 -2.445e-008 1.40609e-007 -7.25067e-008 -2.44501e-008 -0.0146135 -8.88858e-005 -5.9247e-006 1.40609e-007 -7.25036e-008 -2.44594e-008 1.40609e-007 -7.25067e-008 -2.44501e-008 -0.0187565 -0.00117572 5.85704e-005 -1.44686e-007 -6.53506e-007 1.62701e-007 1.40609e-007 -7.25067e-008 -2.44501e-008 -0.0122589 -0.00324545 0.000678681 1.40608e-007 -7.25049e-008 -2.44618e-008 1.40609e-007 -7.25067e-008 -2.44501e-008 -6.56176e-007 3.38365e-007 1.141e-007 1.40609e-007 -7.25067e-008 -2.445e-008 18.2731 4.78381 35.576 7.1172 2.10703 34.1601 6.82556 2.28341 56.4735 5.01897 0.236618 1.34177 -2.94903e-007 -1.85349e-007 2.46622e-007 5.89807e-007 3.70697e-007 -4.93244e-007 1.47452e-007 9.26744e-008 -1.23311e-007 -2.94903e-007 -1.85349e-007 2.46622e-007 0.0150061 -9.87417e-005 -2.21633e-007 1.47452e-007 9.26582e-008 -1.23323e-007 -2.94903e-007 -1.85349e-007 2.46622e-007 0.0190121 -0.00118956 -5.40491e-005 1.47451e-007 9.26539e-008 -1.23328e-007 -2.94903e-007 -1.85349e-007 2.46622e-007 0.0122753 -0.00324748 -0.000673919 1.47448e-007 9.26619e-008 -1.23325e-007 -2.94903e-007 -1.85349e-007 2.46622e-007 5.89807e-007 3.70697e-007 -4.93244e-007 1.47452e-007 9.26744e-008 -1.23311e-007 -3.39143 -50.588 -13.5074 -174.807 29.272 170.147 -3.07148 51.9154 -10.5615 2.09959e-007 1.08299e-008 8.24054e-007 5.06474 -50.3944 14.595 174.647 29.2852 -170.134 4.70906 51.2635 9.41741 -2.38542e-015 -3.18055e-015 3.18055e-015 
0.120143 7.53797 -42.9989 0 0 -0 2.33514 8.56948 -1.9897 5.05921 17.0434 -4.40999 5.05921 17.0434 -4.40999 -5.03562e-005 -3.49181e-005 7.20629e-006 3.61226 -0.472978 0.112117 -12.252 1.60635 -20.101 -5.8364 3.03546 -31.5663 17.642 1.55671 -69.8911 25.9979 5.66769e-007 6.6167e-007 4.68851e-008 -2.41591e-008 -8.09123e-009 1.59028e-015 -7.95139e-015 9.54166e-015 4.68851e-008 -2.4159e-008 -8.09124e-009 4.68851e-008 -2.41591e-008 -8.09123e-009 -0.014606 -8.84513e-005 4.7823e-006 3.15387e-007 5.45648e-007 -1.89698e-007 4.68851e-008 -2.41591e-008 -8.09123e-009 -0.0187676 -0.00117717 6.05049e-005 -2.22173e-007 -5.94116e-007 1.73497e-007 4.68851e-008 -2.41591e-008 -8.09123e-009 -0.0122643 -0.00324904 0.000671051 3.15071e-007 5.46065e-007 -1.89807e-007 4.68851e-008 -2.41591e-008 -8.09123e-009 1.59028e-015 -7.95139e-015 9.54166e-015 4.68851e-008 -2.4159e-008 -8.09124e-009 18.2731 4.78382 35.576 7.09995 2.09683 34.0601 6.82556 2.2834 56.4735 4.025 0.337812 2.01762 -1.48146e-007 -9.30607e-008 1.22093e-007 -2.96292e-007 -1.86121e-007 2.44186e-007 -1.77775e-006 -1.11673e-006 1.46512e-006 -1.48146e-007 -9.30607e-008 1.22093e-007 0.0149925 -9.76068e-005 5.66971e-008 -1.77776e-006 -1.11654e-006 1.46527e-006 -1.48146e-007 -9.30607e-008 1.22093e-007 0.0189868 -0.00118931 -5.49089e-005 -1.77775e-006 -1.11648e-006 1.46532e-006 -1.48146e-007 -9.30607e-008 1.22093e-007 0.0122668 -0.00324692 -0.000669759 -1.77771e-006 -1.11658e-006 1.46529e-006 -1.48146e-007 -9.30607e-008 1.22093e-007 -2.96292e-007 -1.86121e-007 2.44186e-007 -1.77775e-006 -1.11673e-006 1.46512e-006 -3.39143 -50.588 -13.5074 -174.807 29.272 170.147 -3.07148 51.9154 -10.5615 2.09959e-007 1.08299e-008 8.24054e-007 5.06474 -50.3944 14.595 174.647 29.2852 -170.134 4.70906 51.2635 9.41741 -2.38542e-015 -3.18055e-015 3.18055e-015 
0.120143 7.53797 -42.9989 0 0 -0 2.33602 8.53894 -1.9912 5.05943 16.9823 -4.41127 5.05944 16.9823 -4.41128 -5.44865e-005 0.000185004 9.83514e-006 4.51718 -0.58843 0.152947 -12.252 1.60634 -20.101 -5.83641 3.03546 -31.5663 17.642 1.55671 -69.8911 25.9979 -4.34805e-006 -4.63344e-006 -4.69005e-008 2.41491e-008 8.03241e-009 4.69005e-008 -2.41491e-008 -8.03241e-009 -4.69005e-008 2.41491e-008 8.03241e-009 -4.69005e-008 2.41491e-008 8.03241e-009 -0.0146131 -9.17454e-005 1.44107e-006 -4.69005e-008 2.41481e-008 8.03555e-009 -4.69005e-008 2.41491e-008 8.03241e-009 -0.0187518 -0.00117573 5.59377e-005 -4.69003e-008 2.41478e-008 8.03686e-009 -4.69005e-008 2.41491e-008 8.03241e-009 -0.01226 -0.00324698 0.000683929 -4.69001e-008 2.41485e-008 8.03632e-009 -4.69005e-008 2.41491e-008 8.03241e-009 4.69005e-008 -2.41491e-008 -8.03241e-009 -4.69005e-008 2.41491e-008 8.03241e-009 18.2731 4.78382 35.576 7.08269 2.08667 33.96 6.82557 2.28342 56.4735 3.02812 0.427409 2.69636 -1.1906e-006 -7.4746e-007 9.66849e-007 8.92953e-007 5.60595e-007 -7.25137e-007 -5.95302e-007 -3.7373e-007 4.83424e-007 -1.1906e-006 -7.4746e-007 9.66849e-007 0.0150019 -9.2756e-005 -6.52794e-006 -5.95306e-007 -3.73667e-007 4.83474e-007 -1.1906e-006 -7.4746e-007 9.66849e-007 0.0190004 -0.00119321 -5.8816e-005 -5.95302e-007 -3.7365e-007 4.83493e-007 -1.1906e-006 -7.4746e-007 9.66849e-007 0.0122747 -0.00324962 -0.000677247 -5.9529e-007 -3.73681e-007 4.83481e-007 -1.1906e-006 -7.4746e-007 9.66849e-007 8.92953e-007 5.60595e-007 -7.25137e-007 -5.95302e-007 -3.7373e-007 4.83424e-007 -3.39143 -50.588 -13.5074 -174.807 29.272 170.147 -3.07148 51.9154 -10.5615 2.09959e-007 1.08299e-008 8.24054e-007 5.06474 -50.3944 14.595 174.647 29.2852 -170.134 4.70906 51.2635 9.41741 -2.38542e-015 -3.18055e-015 3.18055e-015 
